<?xml version="1.0" standalone="no"?>
<!DOCTYPE svg PUBLIC "-//W3C//DTD SVG 20010904//EN"
 "http://www.w3.org/TR/2001/REC-SVG-20010904/DTD/svg10.dtd">
<svg version="1.0" xmlns="http://www.w3.org/2000/svg"
 width="494.000000pt" height="472.000000pt" viewBox="0 0 494.000000 472.000000"
 preserveAspectRatio="xMidYMid meet">

<g transform="translate(0.000000,472.000000) scale(0.100000,-0.100000)"
fill="#000000" stroke="none">
<path d="M1460 3547 c59 -29 122 -95 164 -170 19 -34 111 -239 205 -456 94
-217 178 -405 187 -418 29 -45 69 -53 256 -53 l173 0 -42 19 c-79 36 -113 85
-201 286 -45 102 -82 187 -82 190 0 3 173 5 384 5 l384 0 12 51 c19 79 9 145
-29 182 l-31 32 -422 5 -421 5 -56 130 c-73 169 -75 171 -121 195 -35 18 -59
20 -222 20 l-183 0 45 -23z"/>
<path d="M2082 2350 c-42 -10 -88 -53 -103 -97 -15 -47 -4 -97 32 -138 90
-102 249 -40 249 97 0 94 -85 159 -178 138z"/>
<path d="M2895 2341 c-76 -34 -109 -143 -63 -211 82 -122 268 -66 268 80 0 38
-19 77 -54 109 -28 26 -113 39 -151 22z"/>
<path d="M550 1325 l0 -175 90 0 90 0 0 40 0 40 -45 0 c-43 0 -45 1 -45 30 0
28 2 30 40 30 39 0 40 1 40 35 0 34 -1 35 -40 35 -36 0 -40 3 -40 25 0 23 4
25 45 25 l45 0 0 45 0 45 -90 0 -90 0 0 -175z"/>
<path d="M810 1472 c-65 -65 -67 -236 -5 -298 20 -20 34 -24 82 -24 75 0 87 8
79 52 -6 32 -8 34 -41 30 -19 -2 -42 1 -49 7 -21 18 -29 83 -16 131 l11 42 44
-4 c38 -5 44 -3 49 16 17 64 5 76 -76 76 -41 0 -54 -5 -78 -28z"/>
<path d="M1061 1487 c-46 -22 -65 -72 -65 -161 1 -130 36 -176 134 -176 97 0
130 45 130 177 0 88 -19 140 -60 160 -32 16 -108 16 -139 0z m93 -83 c12 -11
16 -35 16 -89 0 -64 -3 -76 -20 -85 -14 -8 -26 -8 -40 0 -17 9 -20 21 -20 90
0 65 3 81 18 89 23 14 28 14 46 -5z"/>
<path d="M1315 1488 c-2 -7 -5 -86 -7 -176 l-3 -162 42 0 42 0 3 93 3 92 15
-90 15 -90 45 0 45 0 15 82 c8 45 18 85 23 89 4 4 7 -34 7 -84 l0 -92 41 0 42
0 -6 83 c-4 45 -7 124 -7 175 l0 93 -62 -3 -63 -3 -14 -94 c-8 -54 -17 -88
-21 -80 -4 8 -13 51 -20 97 l-12 82 -60 0 c-38 0 -60 -4 -63 -12z"/>
<path d="M1697 1378 c-4 -66 -7 -145 -7 -175 l0 -53 40 0 40 0 1 93 c0 104 11
97 29 -20 l12 -73 43 0 43 0 16 87 c9 47 18 89 21 91 3 3 5 -36 5 -86 l0 -92
40 0 40 0 0 108 c0 59 -3 137 -7 175 l-6 67 -57 0 -58 0 -12 -82 c-18 -116
-25 -122 -39 -32 -19 120 -14 114 -80 114 l-58 0 -6 -122z"/>
<path d="M2080 1325 l0 -176 93 3 92 3 3 38 3 37 -50 0 c-50 0 -51 1 -51 30 0
28 2 30 40 30 39 0 40 1 40 35 0 34 -1 35 -40 35 -36 0 -40 3 -40 25 0 23 4
25 44 25 48 0 56 9 56 61 l0 29 -95 0 -95 0 0 -175z"/>
<path d="M2310 1325 l0 -175 45 0 45 0 0 67 c0 76 8 75 31 -5 l16 -57 50 -3
51 -3 -23 74 c-20 67 -21 77 -8 90 20 20 28 94 14 130 -15 38 -65 57 -151 57
l-70 0 0 -175z m128 48 c-2 -27 -8 -39 -20 -41 -15 -3 -18 4 -18 37 0 35 3 41
21 41 17 0 20 -5 17 -37z"/>
<path d="M2634 1481 c-74 -45 -83 -241 -14 -303 25 -23 39 -28 84 -28 77 0 84
4 77 48 -6 36 -7 37 -48 34 -52 -4 -63 13 -63 96 0 70 12 85 67 80 37 -3 38
-2 44 35 5 30 2 40 -12 47 -30 16 -102 11 -135 -9z"/>
<path d="M2820 1325 l0 -175 90 0 c89 0 90 0 90 24 0 13 3 31 6 40 5 13 -2 16
-45 16 -50 0 -51 1 -51 30 0 28 2 30 40 30 39 0 40 1 40 35 0 34 -1 35 -40 35
-36 0 -40 3 -40 25 0 23 4 25 45 25 43 0 45 1 45 29 0 16 3 36 6 45 5 14 -6
16 -90 16 l-96 0 0 -175z"/>
<path d="M3270 1325 l0 -175 45 0 45 0 0 65 c0 36 4 65 9 65 5 0 17 -29 26
-65 l18 -65 48 0 c27 0 49 3 49 7 0 4 -10 37 -22 74 -21 66 -21 69 -4 88 22
24 25 101 6 136 -17 31 -64 45 -152 45 l-68 0 0 -175z m136 60 c7 -27 -10 -55
-32 -55 -10 0 -14 13 -14 40 0 33 3 40 20 40 13 0 22 -9 26 -25z"/>
<path d="M3550 1325 l0 -176 93 3 92 3 3 38 3 37 -50 0 c-50 0 -51 1 -51 30 0
28 2 30 40 30 39 0 40 1 40 35 0 34 -1 35 -40 35 -36 0 -40 3 -40 25 0 23 4
25 44 25 48 0 56 9 56 61 l0 29 -95 0 -95 0 0 -175z"/>
<path d="M3796 1348 c-15 -84 -30 -163 -33 -175 -5 -21 -2 -23 40 -23 42 0 46
2 49 28 3 24 7 27 38 27 28 0 35 -4 40 -25 5 -22 12 -25 51 -28 l46 -3 -29
153 c-15 84 -30 163 -33 176 -5 20 -11 22 -73 22 l-69 0 -27 -152z m113 -55
c1 -17 -5 -23 -20 -23 -19 0 -20 4 -14 53 4 28 10 57 13 62 7 10 20 -51 21
-92z"/>
<path d="M4101 1474 c-36 -30 -51 -77 -51 -159 0 -68 27 -137 58 -154 24 -13
121 -14 140 -2 9 5 11 19 7 42 -6 33 -8 34 -53 34 l-47 0 -9 43 c-5 25 -5 59
0 85 l9 42 47 -1 c47 0 47 0 54 39 8 49 -2 57 -73 57 -41 0 -58 -5 -82 -26z"/>
<path d="M4270 1460 c0 -38 2 -40 30 -40 l30 0 0 -135 0 -135 45 0 44 0 3 133
3 132 33 3 c30 3 32 6 32 43 l0 39 -110 0 -110 0 0 -40z"/>
<path d="M3050 1295 l0 -35 80 0 80 0 0 35 0 35 -80 0 -80 0 0 -35z"/>
<path d="M1617 794 c-28 -58 -59 -145 -54 -151 4 -3 12 6 18 21 16 35 79 38
102 4 8 -13 17 -21 20 -18 6 6 -50 150 -63 164 -5 4 -15 -5 -23 -20z m43 -76
c0 -12 -8 -18 -24 -18 -33 0 -37 9 -19 50 l14 35 14 -25 c8 -14 14 -33 15 -42z"/>
<path d="M2483 812 c-30 -5 -63 -48 -63 -83 0 -43 40 -83 83 -83 64 0 103 63
75 120 -14 30 -60 52 -95 46z m53 -20 c22 -14 35 -53 29 -83 -17 -76 -125 -58
-125 21 0 50 58 88 96 62z"/>
<path d="M1760 730 c0 -47 4 -80 10 -80 6 0 10 33 10 80 0 47 -4 80 -10 80 -6
0 -10 -33 -10 -80z"/>
<path d="M2140 800 c0 -5 5 -10 10 -10 6 0 10 5 10 10 0 6 -4 10 -10 10 -5 0
-10 -4 -10 -10z"/>
<path d="M2653 730 c0 -47 2 -66 4 -42 2 23 2 61 0 85 -2 23 -4 4 -4 -43z"/>
<path d="M2730 800 c0 -5 5 -10 10 -10 6 0 10 5 10 10 0 6 -4 10 -10 10 -5 0
-10 -4 -10 -10z"/>
<path d="M1852 748 c-7 -7 -12 -27 -12 -45 0 -38 33 -66 68 -56 32 8 27 20 -7
15 -22 -3 -32 1 -40 17 -11 20 -9 21 29 21 44 0 61 19 40 45 -15 18 -61 20
-78 3z m66 -15 c2 -9 -7 -13 -27 -13 -30 0 -39 9 -24 24 11 10 46 3 51 -11z"/>
<path d="M2005 733 c16 -24 16 -28 1 -55 -20 -33 -8 -39 13 -6 l14 22 19 -23
c24 -31 35 -20 12 13 -15 25 -15 28 0 45 25 28 19 37 -8 12 l-24 -23 -11 21
c-7 12 -17 21 -23 21 -6 0 -3 -12 7 -27z"/>
<path d="M2140 705 c0 -30 5 -55 10 -55 6 0 10 25 10 55 0 30 -4 55 -10 55 -5
0 -10 -25 -10 -55z"/>
<path d="M2224 745 c-8 -19 3 -34 33 -46 31 -12 24 -34 -10 -34 -32 1 -35 -10
-5 -18 26 -7 58 9 58 29 0 8 -13 23 -30 32 -33 19 -34 37 -1 36 11 0 21 3 21
8 0 14 -60 9 -66 -7z"/>
<path d="M2730 705 c0 -30 5 -55 10 -55 6 0 10 25 10 55 0 30 -4 55 -10 55 -5
0 -10 -25 -10 -55z"/>
<path d="M2816 723 c9 -21 18 -46 21 -55 9 -32 30 -19 49 29 11 27 21 51 22
55 2 5 -1 8 -6 8 -5 0 -17 -19 -26 -42 l-18 -43 -19 43 c-24 52 -46 57 -23 5z"/>
<path d="M2970 752 c0 -4 12 -8 27 -7 41 0 41 -28 1 -40 -22 -7 -34 -17 -36
-31 -4 -25 21 -38 46 -25 9 4 23 6 30 4 16 -6 17 78 0 95 -13 13 -68 17 -68 4z
m60 -72 c0 -6 -7 -13 -15 -16 -20 -8 -48 3 -40 16 8 13 55 13 55 0z"/>
<path d="M3112 695 c0 -33 3 -46 5 -30 7 60 14 76 36 85 19 7 18 8 -10 7 l-33
-2 2 -60z"/>
<path d="M3229 736 c-15 -32 -4 -72 21 -86 22 -12 60 -5 60 11 0 6 -5 7 -11 4
-16 -11 -59 4 -59 20 0 10 11 15 35 15 23 0 38 6 41 15 17 44 -68 64 -87 21z
m69 -3 c2 -9 -7 -13 -27 -13 -30 0 -39 9 -24 24 11 10 46 3 51 -11z"/>
<path d="M3376 744 c-8 -21 0 -33 30 -44 13 -5 24 -17 24 -26 0 -13 -6 -15
-30 -10 -34 6 -42 -9 -8 -17 55 -15 80 42 28 63 -35 15 -35 31 1 41 22 6 21 7
-7 8 -21 1 -34 -5 -38 -15z"/>
</g>
</svg>
